<?xml version="1.0" encoding="utf-8"?>
<!-- Generator: Adobe Illustrator 25.4.1, SVG Export Plug-In . SVG Version: 6.00 Build 0)  -->
<svg version="1.1" id="Layer_1" xmlns="http://www.w3.org/2000/svg" xmlns:xlink="http://www.w3.org/1999/xlink" x="0px" y="0px"
	 viewBox="0 0 20 20" enable-background="new 0 0 20 20" xml:space="preserve">
<path fill="#FFFFFF" d="M7.8,14H7.2C6.5,14,6,13.5,6,12.8V7.2C6,6.5,6.5,6,7.2,6h0.6C8.5,6,9,6.5,9,7.2v5.6C9,13.5,8.5,14,7.8,14z"
	/>
<path fill="#FFFFFF" d="M12.8,14h-0.6c-0.7,0-1.2-0.5-1.2-1.2V7.2C11,6.5,11.5,6,12.2,6h0.6C13.5,6,14,6.5,14,7.2v5.6
	C14,13.5,13.5,14,12.8,14z"/>
</svg>
